<svg xmlns="http://www.w3.org/2000/svg" viewBox="0 0 108 108" width="108" height="108" role="img" aria-label="Volume Area Controller">
  <defs>
    <linearGradient id="vacg" x1="6" y1="4" x2="102" y2="106" gradientUnits="userSpaceOnUse">
      <stop offset="0" stop-color="#2E74E8"/>
      <stop offset="0.5" stop-color="#1FA6A0"/>
      <stop offset="1" stop-color="#22C55E"/>
    </linearGradient>
  </defs>
  <circle cx="54" cy="54" r="54" fill="url(#vacg)"/>
  <g fill="none" stroke="#ffffff" stroke-opacity="0.15" stroke-width="2">
    <circle cx="54" cy="52" r="38"/>
    <circle cx="54" cy="52" r="29"/>
  </g>
  <path fill="#ffffff" d="M54,28 C43.5,28 35,36.5 35,47 C35,60 54,84 54,84 C54,84 73,60 73,47 C73,36.5 64.5,28 54,28 Z"/>
  <circle cx="54" cy="47" r="13.5" fill="#2563EB"/>
  <path fill="#ffffff" d="M46,41.5 h3.6 l5.4,-4.8 v16.6 l-5.4,-4.8 h-3.6 Z"/>
  <g fill="none" stroke="#ffffff" stroke-width="2.2" stroke-linecap="round">
    <path d="M56.5,44 a4.5,4.5 0 0 1 0,6.6"/>
    <path d="M59.5,42 a7,7 0 0 1 0,11"/>
  </g>
</svg>
